<svg width="653.9599853515625px" height="127.84000244140624px" xmlns="http://www.w3.org/2000/svg" viewBox="-76.97999267578126 11.07999877929688 653.9599853515625 127.84000244140624" style="background: none;" preserveAspectRatio="xMidYMid"><defs><linearGradient id="editing-sticker-gradient" x1="0.5" y1="0.2" x2="0.5" y2="0.8"><stop offset="0" stop-color="rgba(81.69524565197173%,81.69524565197173%,81.69524565197173%,0.594)"/><stop offset="1" stop-color="rgba(56.933340890066965%,56.933340890066965%,56.933340890066965%,0.569)"/></linearGradient><filter id="editing-sticker" x="-100%" y="-100%" width="300%" height="300%"><feMorphology operator="erode" radius="1" in="SourceAlpha" result="alpha-erode"/><feConvolveMatrix order="3,3" divisor="1" kernelMatrix="0 1 0 1 1 1 0 1 0" in="alpha-erode" result="alpha-round"/><feMorphology operator="dilate" radius="3.5" in="alpha-round" result="dilate-shadow"/><feGaussianBlur in="dilate-shadow" stdDeviation="1.5" result="shadow"/><feFlood flood-color="#fff" result="flood-sticker"/><feComposite operator="in" in="flood-sticker" in2="alpha-round" result="comp-sticker"/><feMorphology operator="dilate" radius="3" in="comp-sticker" result="morph-sticker"/><feConvolveMatrix order="3,3" divisor="1" kernelMatrix="0 1 0 1 1 1 0 1 0" in="morph-sticker" result="sticker"/><feMerge><feMergeNode in="shadow"/><feMergeNode in="sticker"/><feMergeNode in="SourceGraphic"/></feMerge></filter></defs><g filter="url(#editing-sticker)"><g transform="translate(19.79001748561859, 97.43000030517578)"><path d="M7.68 0L0.64 0L8.32-42.24L22.08-42.24L32.06-13.18L37.38-42.24L44.48-42.18L36.67 0L22.02 0L12.80-27.97L7.68 0ZM72-20.61L84.93-21.76L84.93-21.76Q80.32-11.65 80.32 0.06L80.32 0.06L80.32 0.06Q78.59 1.28 76.06 1.28L76.06 1.28L76.06 1.28Q73.54 1.28 71.94 0.10L71.94 0.10L71.94 0.10Q70.34-1.09 70.02-2.30L70.02-2.30L70.02-2.30Q68.42-0.64 65.82 0.32L65.82 0.32L65.82 0.32Q63.23 1.28 60.48 1.28L60.48 1.28L60.48 1.28Q57.73 1.28 55.33 0.38L55.33 0.38L55.33 0.38Q52.93-0.51 51.07-2.50L51.07-2.50L51.07-2.50Q46.98-6.85 46.98-15.10L46.98-15.10L46.98-15.10Q46.98-27.90 53.82-35.58L53.82-35.58L53.82-35.58Q60.86-43.52 73.34-43.52L73.34-43.52L73.34-43.52Q81.98-43.52 85.06-39.04L85.06-39.04L85.06-39.04Q86.02-37.63 86.02-35.94L86.02-35.94L86.02-35.94Q86.02-34.24 85.28-32.80L85.28-32.80L85.28-32.80Q84.54-31.36 83.39-30.21L83.39-30.21L83.39-30.21Q80.64-27.65 77.25-27.65L77.25-27.65L77.25-27.65Q75.90-27.65 74.62-28.10L74.62-28.10L74.62-28.10Q74.88-30.02 74.88-32.26L74.88-32.26L74.88-32.26Q74.88-34.50 74.72-35.52L74.72-35.52L74.72-35.52Q74.56-36.54 74.18-37.38L74.18-37.38L74.18-37.38Q73.34-39.10 71.52-39.10L71.52-39.10L71.52-39.10Q69.70-39.10 67.68-37.15L67.68-37.15L67.68-37.15Q65.66-35.20 64.06-32L64.06-32L64.06-32Q60.54-24.83 60.54-16.19L60.54-16.19L60.54-16.19Q60.54-12.22 62.08-9.41L62.08-9.41L62.08-9.41Q63.74-6.34 66.69-6.34L66.69-6.34L66.69-6.34Q67.71-6.34 68.64-6.85L68.64-6.85L68.64-6.85Q69.57-7.36 69.95-7.74L69.95-7.74L72-20.61ZM90.43-10.37L90.43-10.37L90.43-10.37Q88.38-11.84 88.38-14.66L88.38-14.66L88.38-14.66Q88.38-16.19 89.15-17.44L89.15-17.44L89.15-17.44Q89.92-18.69 91.46-18.88L91.46-18.88L104.06-18.88L104.06-18.88Q106.18-18.88 106.82-20.16L106.82-20.16L106.82-20.16Q107.84-19.58 108.29-18.37L108.29-18.37L108.29-18.37Q108.74-17.15 108.74-15.87L108.74-15.87L108.74-15.87Q108.74-14.59 107.74-13.34L107.74-13.34L107.74-13.34Q106.75-12.10 105.28-11.97L105.28-11.97L93.57-11.97L93.57-11.97Q92.22-11.97 91.58-11.55L91.58-11.55L91.58-11.55Q90.94-11.14 90.43-10.37ZM142.27-33.92L142.27-33.92L142.27-33.92Q137.09-33.92 133.31-35.65L133.31-35.65L131.26-25.28L143.62-25.28L143.62-25.28Q143.62-21.89 141.92-19.74L141.92-19.74L141.92-19.74Q140.22-17.60 137.15-17.60L137.15-17.60L137.15-17.60Q133.82-17.60 130.75-18.82L130.75-18.82L130.75-18.82Q130.11-19.07 130.05-19.14L130.05-19.14L126.40 0L112.45 0L120.58-42.24L149.12-42.24L149.12-42.24Q149.12-38.34 147.30-36.13L147.30-36.13L147.30-36.13Q145.47-33.92 142.27-33.92ZM148.48-15.62L148.48-15.62L148.48-15.62Q148.48-27.71 154.75-35.33L154.75-35.33L154.75-35.33Q161.41-43.58 172.99-43.58L172.99-43.58L172.99-43.58Q181.38-43.58 185.60-39.52L185.60-39.52L185.60-39.52Q189.82-35.46 189.82-26.88L189.82-26.88L189.82-26.88Q189.82-13.82 183.17-6.21L183.17-6.21L183.17-6.21Q176.58 1.28 165.50 1.28L165.50 1.28L165.50 1.28Q156.86 1.28 152.67-3.04L152.67-3.04L152.67-3.04Q148.48-7.36 148.48-15.62ZM165.31-28.86L165.31-28.86L165.31-28.86Q162.43-17.34 162.43-8.26L162.43-8.26L162.43-8.26Q162.43-6.08 163.17-4.67L163.17-4.67L163.17-4.67Q163.90-3.26 165.86-3.26L165.86-3.26L165.86-3.26Q167.81-3.26 169.02-4.19L169.02-4.19L169.02-4.19Q170.24-5.12 171.20-7.23L171.20-7.23L171.20-7.23Q172.74-10.69 174.18-18.02L174.18-18.02L174.18-18.02Q175.62-25.34 175.74-28.38L175.74-28.38L175.74-28.38Q175.87-31.42 175.87-33.73L175.87-33.73L175.87-33.73Q175.87-36.03 175.17-37.50L175.17-37.50L175.17-37.50Q174.46-38.98 172.58-38.98L172.58-38.98L172.58-38.98Q170.69-38.98 169.41-37.82L169.41-37.82L169.41-37.82Q167.04-35.65 165.31-28.86ZM206.08 0L192.38 0L200.19-42.05L200.19-42.05Q206.53-42.75 215.78-42.75L215.78-42.75L215.78-42.75Q225.02-42.75 229.31-40.06L229.31-40.06L229.31-40.06Q233.60-37.38 233.60-31.97L233.60-31.97L233.60-31.97Q233.60-26.56 230.82-23.17L230.82-23.17L230.82-23.17Q228.03-19.78 223.23-18.69L223.23-18.69L223.23-18.69Q224.32-13.38 226.82-9.09L226.82-9.09L226.82-9.09Q229.12-5.06 231.81-3.78L231.81-3.78L231.81-3.78Q230.85-1.09 228.90 0.10L228.90 0.10L228.90 0.10Q226.94 1.28 224.16 1.28L224.16 1.28L224.16 1.28Q221.38 1.28 219.20-0.35L219.20-0.35L219.20-0.35Q217.02-1.98 215.30-4.99L215.30-4.99L215.30-4.99Q211.65-11.52 211.26-21.82L211.26-21.82L211.71-21.82L211.71-21.82Q216.45-21.95 218.82-24.42L218.82-24.42L218.82-24.42Q221.18-26.88 221.18-32.06L221.18-32.06L221.18-32.06Q221.18-38.53 215.74-38.78L215.74-38.78L214.34-38.78L214.34-38.78Q213.76-38.78 213.44-38.72L213.44-38.72L206.08 0ZM241.98 0L234.62 0L246.21-42.24L259.58-42.24L262.53-18.11L274.43-42.24L285.63-42.24L286.78-10.62L286.78-10.62Q287.04-4.35 290.11-2.43L290.11-2.43L290.11-2.43Q289.41-1.15 287.36 0.06L287.36 0.06L287.36 0.06Q285.31 1.28 282.59 1.28L282.59 1.28L282.59 1.28Q279.87 1.28 278.27 0.51L278.27 0.51L278.27 0.51Q276.67-0.26 275.78-1.54L275.78-1.54L275.78-1.54Q274.18-3.84 274.18-8.26L274.18-8.26L274.18-28.03L261.57 0L253.63 0L249.15-28.74L241.98 0ZM317.82-29.57L317.82-29.57L317.82-29.57Q318.78-31.49 318.78-33.28L318.78-33.28L318.78-33.28Q318.78-35.07 318.59-36.06L318.59-36.06L318.59-36.06Q318.40-37.06 317.95-37.82L317.95-37.82L317.95-37.82Q316.99-39.49 315.07-39.49L315.07-39.49L315.07-39.49Q312.70-39.49 310.78-37.76L310.78-37.76L310.78-37.76Q308.74-35.97 308.74-33.15L308.74-33.15L308.74-33.15Q308.74-31.36 309.98-29.98L309.98-29.98L309.98-29.98Q311.23-28.61 313.15-27.33L313.15-27.33L313.15-27.33Q315.07-26.05 317.25-24.77L317.25-24.77L317.25-24.77Q319.42-23.49 321.34-21.95L321.34-21.95L321.34-21.95Q325.76-18.43 325.76-13.70L325.76-13.70L325.76-13.70Q325.76-10.50 324.06-7.78L324.06-7.78L324.06-7.78Q322.37-5.06 319.55-3.07L319.55-3.07L319.55-3.07Q313.41 1.28 305.28 1.28L305.28 1.28L305.28 1.28Q298.69 1.28 295.30-0.86L295.30-0.86L295.30-0.86Q291.90-3.01 291.90-6.27L291.90-6.27L291.90-6.27Q291.90-12.10 296.45-13.57L296.45-13.57L296.45-13.57Q297.73-14.02 299.68-14.02L299.68-14.02L299.68-14.02Q301.63-14.02 303.87-13.18L303.87-13.18L303.87-13.18Q302.85-10.56 302.85-8.19L302.85-8.19L302.85-8.19Q302.85-3.07 306.50-3.07L306.50-3.07L306.50-3.07Q308.86-3.07 310.82-4.80L310.82-4.80L310.82-4.80Q312.77-6.53 312.77-8.48L312.77-8.48L312.77-8.48Q312.77-10.43 311.52-11.84L311.52-11.84L311.52-11.84Q310.27-13.25 308.42-14.37L308.42-14.37L308.42-14.37Q306.56-15.49 304.42-16.58L304.42-16.58L304.42-16.58Q302.27-17.66 300.42-19.20L300.42-19.20L300.42-19.20Q296.06-22.72 296.06-28.35L296.06-28.35L296.06-28.35Q296.06-32 297.86-34.85L297.86-34.85L297.86-34.85Q299.65-37.70 302.53-39.62L302.53-39.62L302.53-39.62Q308.29-43.52 315.36-43.52L315.36-43.52L315.36-43.52Q322.43-43.52 325.86-41.41L325.86-41.41L325.86-41.41Q329.28-39.30 329.28-35.71L329.28-35.71L329.28-35.71Q329.28-32.58 326.85-30.59L326.85-30.59L326.85-30.59Q324.74-28.93 322.18-28.93L322.18-28.93L322.18-28.93Q319.62-28.93 317.82-29.57ZM332.99-10.37L332.99-10.37L332.99-10.37Q330.94-11.84 330.94-14.66L330.94-14.66L330.94-14.66Q330.94-16.19 331.71-17.44L331.71-17.44L331.71-17.44Q332.48-18.69 334.02-18.88L334.02-18.88L346.62-18.88L346.62-18.88Q348.74-18.88 349.38-20.16L349.38-20.16L349.38-20.16Q350.40-19.58 350.85-18.37L350.85-18.37L350.85-18.37Q351.30-17.15 351.30-15.87L351.30-15.87L351.30-15.87Q351.30-14.59 350.30-13.34L350.30-13.34L350.30-13.34Q349.31-12.10 347.84-11.97L347.84-11.97L336.13-11.97L336.13-11.97Q334.78-11.97 334.14-11.55L334.14-11.55L334.14-11.55Q333.50-11.14 332.99-10.37ZM383.81 1.28L383.81 1.28L383.81 1.28Q375.62 1.28 374.85-10.37L374.85-10.37L363.84-10.37L363.84-10.37Q362.56-7.42 361.66-4.86L361.66-4.86L360 0L351.04 0L371.20-42.24L384.96-42.24L387.65-11.14L387.65-11.14Q388.29-4.42 390.85-2.43L390.85-2.43L390.85-2.43Q388.99 1.28 383.81 1.28ZM369.34-23.17L365.82-15.04L374.66-15.04L373.89-31.49L373.89-33.22L369.34-23.17ZM407.81 0L393.86 0L401.98-42.24L416.06-42.24L407.81 0ZM418.43-15.62L418.43-15.62L418.43-15.62Q418.43-27.71 424.70-35.33L424.70-35.33L424.70-35.33Q431.36-43.58 442.94-43.58L442.94-43.58L442.94-43.58Q451.33-43.58 455.55-39.52L455.55-39.52L455.55-39.52Q459.78-35.46 459.78-26.88L459.78-26.88L459.78-26.88Q459.78-13.82 453.12-6.21L453.12-6.21L453.12-6.21Q446.53 1.28 435.46 1.28L435.46 1.28L435.46 1.28Q426.82 1.28 422.62-3.04L422.62-3.04L422.62-3.04Q418.43-7.36 418.43-15.62ZM435.26-28.86L435.26-28.86L435.26-28.86Q432.38-17.34 432.38-8.26L432.38-8.26L432.38-8.26Q432.38-6.08 433.12-4.67L433.12-4.67L433.12-4.67Q433.86-3.26 435.81-3.26L435.81-3.26L435.81-3.26Q437.76-3.26 438.98-4.19L438.98-4.19L438.98-4.19Q440.19-5.12 441.15-7.23L441.15-7.23L441.15-7.23Q442.69-10.69 444.13-18.02L444.13-18.02L444.13-18.02Q445.57-25.34 445.70-28.38L445.70-28.38L445.70-28.38Q445.82-31.42 445.82-33.73L445.82-33.73L445.82-33.73Q445.82-36.03 445.12-37.50L445.12-37.50L445.12-37.50Q444.42-38.98 442.53-38.98L442.53-38.98L442.53-38.98Q440.64-38.98 439.36-37.82L439.36-37.82L439.36-37.82Q436.99-35.65 435.26-28.86Z" fill="url(#editing-sticker-gradient)" stroke="#000000" stroke-width="2.5"/></g></g><style>text {
  font-size: 64px;
  font-family: Arial Black;
  dominant-baseline: central;
  text-anchor: middle;
}</style></svg>
