<svg  version="1.1" viewBox="0 0 650 600" xmlns="http://www.w3.org/2000/svg" xmlns:xlink="http://www.w3.org/1999/xlink">
 <g>
  <path id="noun_form_card" d="m595 56.262h-490c-4.832 0-8.75 3.918-8.75 8.75v429.98c0 2.3203 0.92188 4.5469 2.5625 6.1875s3.8672 2.5625 6.1875 2.5625h490c2.3203 0 4.5469-0.92188 6.1875-2.5625s2.5625-3.8672 2.5625-6.1875v-429.98c0-2.3203-0.92188-4.5469-2.5625-6.1875s-3.8672-2.5625-6.1875-2.5625zm-8.75 429.98h-472.5v-412.48h472.5z"/>
  <path id="noun_form_short-form-1" d="m167.56 278.51h71.227c2.3203 0 4.543-0.92188 6.1875-2.5625 1.6406-1.6406 2.5625-3.8672 2.5625-6.1875v-30.273c0-2.3203-0.92187-4.5469-2.5625-6.1875-1.6445-1.6406-3.8672-2.5625-6.1875-2.5625h-71.227c-4.832 0-8.75 3.918-8.75 8.75v30.273c0 4.832 3.918 8.75 8.75 8.75zm8.75-30.273h53.727v12.773h-53.727z"/>
  <path id="noun_form_short-form-1-label" d="m167.56 360.59h152.51c2.3203 0 4.5469-0.92188 6.1875-2.5625 1.6406-1.6406 2.5625-3.8672 2.5625-6.1875v-56.785c0-2.3203-0.92188-4.5469-2.5625-6.1875s-3.8672-2.5625-6.1875-2.5625h-152.51c-4.832 0-8.75 3.918-8.75 8.75v56.789-0.003906c0 2.3203 0.92188 4.5469 2.5625 6.1875 1.6406 1.6406 3.8672 2.5625 6.1875 2.5625zm8.75-56.789 135.01 0.003906v39.289l-135.01-0.003906z"/>
  <path id="noun_form_short-form-2" d="m532.44 286.3h-152.51c-4.832 0-8.75 3.918-8.75 8.75v56.789-0.003906c0 2.3203 0.92188 4.5469 2.5625 6.1875 1.6406 1.6406 3.8672 2.5625 6.1875 2.5625h152.51c2.3203 0 4.5469-0.92188 6.1875-2.5625 1.6406-1.6406 2.5625-3.8672 2.5625-6.1875v-56.785c0-2.3203-0.92188-4.5469-2.5625-6.1875s-3.8672-2.5625-6.1875-2.5625zm-8.75 56.789-135.01-0.003906v-39.285h135.01z"/>
  <path id="noun_form_short-form-2-label" d="m379.93 278.51h71.312c2.3203 0 4.5469-0.92188 6.1875-2.5625s2.5625-3.8672 2.5625-6.1875v-30.273c0-2.3203-0.92188-4.5469-2.5625-6.1875s-3.8672-2.5625-6.1875-2.5625h-71.312c-4.832 0-8.75 3.918-8.75 8.75v30.273c0 4.832 3.918 8.75 8.75 8.75zm8.75-30.273h53.812v12.773h-53.812z"/>
  <path id="noun_form_submit-btn" d="m532.44 396.55h-113.75c-4.832 0-8.75 3.918-8.75 8.75v56.699c0 2.3203 0.92188 4.5469 2.5625 6.1875s3.8672 2.5625 6.1875 2.5625h113.75c2.3203 0 4.5469-0.92188 6.1875-2.5625s2.5625-3.8672 2.5625-6.1875v-56.699c0-2.3203-0.92188-4.5469-2.5625-6.1875s-3.8672-2.5625-6.1875-2.5625zm-8.75 56.699h-96.25v-39.199h96.25z"/>
  <path id="noun_form_plain-form" d="m167.56 213.5h364.88c2.3203 0 4.5469-0.92188 6.1875-2.5625s2.5625-3.8672 2.5625-6.1875v-56.699c0-2.3203-0.92188-4.5469-2.5625-6.1875s-3.8672-2.5625-6.1875-2.5625h-364.88c-4.832 0-8.75 3.918-8.75 8.75v56.699c0 2.3203 0.92188 4.5469 2.5625 6.1875s3.8672 2.5625 6.1875 2.5625zm8.75-56.699h347.38v39.199h-347.38z"/>
  <path id="noun_form_plain-form-label" d="m167.56 131.25h71.227c2.3203 0 4.543-0.92188 6.1875-2.5625 1.6406-1.6406 2.5625-3.8672 2.5625-6.1875v-30.102c0-2.3203-0.92187-4.543-2.5625-6.1875-1.6445-1.6406-3.8672-2.5625-6.1875-2.5625h-71.227c-4.832 0-8.75 3.918-8.75 8.75v30.102c0 2.3203 0.92188 4.5469 2.5625 6.1875s3.8672 2.5625 6.1875 2.5625zm8.75-30.363h53.727v12.863h-53.727z"/>
  <path id="noun_form_short-form-1-content" d="m246.23 315h-52.5c-4.8359 0-8.75 3.918-8.75 8.75s3.9141 8.75 8.75 8.75h52.5c4.832 0 8.75-3.918 8.75-8.75s-3.918-8.75-8.75-8.75z"/>
  <path id="noun_form_plain-form-content" d="m246.23 167.65h-52.5c-4.8359 0-8.75 3.918-8.75 8.75 0 4.8359 3.9141 8.75 8.75 8.75h52.5c4.832 0 8.75-3.9141 8.75-8.75 0-4.832-3.918-8.75-8.75-8.75z"/>
  <path id="noun_form_short-form-2-content" d="m406 332.5h52.5c4.832 0 8.75-3.918 8.75-8.75s-3.918-8.75-8.75-8.75h-52.5c-4.832 0-8.75 3.918-8.75 8.75s3.918 8.75 8.75 8.75z"/>
  <path id="noun_form_submit-content" d="m449.4 442.4h52.5c4.8359 0 8.75-3.9141 8.75-8.75 0-4.832-3.9141-8.75-8.75-8.75h-52.5c-4.832 0-8.75 3.918-8.75 8.75 0 4.8359 3.918 8.75 8.75 8.75z"/>
  <path id="noun_form_about-1" d="m322 424.9h-124.07c-4.832 0-8.75 3.918-8.75 8.75 0 4.8359 3.918 8.75 8.75 8.75h124.07c4.832 0 8.75-3.9141 8.75-8.75 0-4.832-3.918-8.75-8.75-8.75z"/>
  <path id="noun_form_about-2" d="m249.2 458.85h-51.273c-4.832 0-8.75 3.9141-8.75 8.75 0 4.832 3.918 8.75 8.75 8.75h51.273c4.832 0 8.75-3.918 8.75-8.75 0-4.8359-3.918-8.75-8.75-8.75z"/>
 </g>
</svg>
